<svg xmlns="http://www.w3.org/2000/svg" viewBox="0 0 252.65 195.1"><defs><style>.cls-1{fill:#fff;stroke:#02c39a;stroke-miterlimit:10;stroke-width:4px;}</style></defs><title>SkSVGAsset 5</title><g id="Layer_2" data-name="Layer 2"><g id="Layer_1-2" data-name="Layer 1"><path class="cls-1" d="M192.61,133.81,245,83.19H194.44L155.73,122.7,162,14.44l-35,46-1.57,25.43q-10.19-6.27-25.27-10-5.87-1.45-11.84-2.67a63.48,63.48,0,0,1-10.81-3.11,24.92,24.92,0,0,1-7.93-4.78,11.16,11.16,0,0,1-3.48-7.64A13.43,13.43,0,0,1,71,46q5.39-4.74,14.45-5.45a45.09,45.09,0,0,1,15,1.82c6.14,1.61,8.25,2.09,13.66,5.82L148.94,8C139,6.44,125.55,4.67,111,3.44c-10-.85-26.91-1.91-35.81-1.21A74.14,74.14,0,0,0,49.67,8.55,55.52,55.52,0,0,0,31.06,22.13,53.89,53.89,0,0,0,20.12,41.7a63.78,63.78,0,0,0-2.51,24.55q1,13.36,5.9,21.74a42.85,42.85,0,0,0,12.1,13.56,56.06,56.06,0,0,0,16.23,8q9,2.78,18.26,4.92,7.83,2,13.37,3.75a39,39,0,0,1,9.07,4,15.41,15.41,0,0,1,5.2,5.11,16.16,16.16,0,0,1,2,6.93q.52,6.68-4.67,12.36t-16.64,6.59a50,50,0,0,1-20.62-3A81.32,81.32,0,0,1,36,138L3,177.83c23.92,14.35,57.91,16.52,80.65,14.73a91.66,91.66,0,0,0,29.1-6.72,74.65,74.65,0,0,0,6.71-3.29l-.63,10.21h36.88V148.12l40.54,44.64H248Z"/></g></g></svg>